<svg xmlns="http://www.w3.org/2000/svg" fill-rule="evenodd" clip-rule="evenodd" image-rendering="optimizeQuality" shape-rendering="geometricPrecision" text-rendering="geometricPrecision" viewBox="0 0 42333.32 42333.32"><rect width="42333.32" height="42333.32" fill="none"/><path fill="#ffb64b" fill-rule="nonzero" d="M30017.59 19671.59c-5800.67,-3026.9 -10033.28,-9218.13 -11226,-16684.96 -1193.07,7466.83 -5425.69,13658.06 -11226.36,16684.96 -1128.83,588.91 -3939.1,1494.93 -3939.1,1494.93 0,0 2810.27,906.37 3939.1,1495.29 5800.67,3026.89 10033.29,9217.77 11226.36,16684.87 1192.72,-7467.1 5425.33,-13657.98 11226,-16684.87 1129.11,-588.92 3939.28,-1495.29 3939.28,-1495.29 0,0 -2810.17,-906.02 -3939.28,-1494.93zm7455.8 -11458.33c-1817.15,-948.08 -3143.08,-2887.67 -3516.52,-5226.63 -373.71,2338.96 -1699.71,4278.55 -3516.77,5226.63 -353.53,184.52 -1233.9,468.35 -1233.9,468.35 0,0 880.37,283.92 1233.9,468.34 1817.06,948.1 3143.06,2887.42 3516.77,5226.65 373.44,-2339.23 1699.37,-4278.55 3516.52,-5226.65 353.79,-184.42 1233.8,-468.34 1233.8,-468.34 0,0 -880.01,-283.83 -1233.8,-468.35z" class="coloraa6829 svgShape"/></svg>