<svg width="500" height="500" viewBox="0 0 500 500" xmlns="http://www.w3.org/2000/svg">
  <!-- Background Rectangle -->
  <circle cx="250" cy="250" r="250" fill="white" />
  
  <g clip-path="url(#clip0_77_9)">
    <path d="M329.69 245.683C280.085 219.799 243.889 166.854 233.689 103C223.487 166.854 187.291 219.799 137.686 245.683C128.032 250.72 104 258.468 104 258.468C104 258.468 128.032 266.218 137.686 271.255C187.291 297.14 223.487 350.082 233.689 413.937C243.889 350.082 280.085 297.14 329.69 271.255C339.346 266.218 363.377 258.468 363.377 258.468C363.377 258.468 339.346 250.72 329.69 245.683ZM393.449 147.696C377.909 139.589 366.571 123.002 363.377 103C360.181 123.002 348.842 139.589 333.303 147.696C330.28 149.274 322.751 151.701 322.751 151.701C322.751 151.701 330.28 154.129 333.303 155.706C348.842 163.814 360.181 180.399 363.377 200.403C366.571 180.399 377.909 163.814 393.449 155.706C396.474 154.129 404 151.701 404 151.701C404 151.701 396.474 149.274 393.449 147.696Z" fill="#FFB64B"/>
  </g>
  <defs>
    <clipPath id="clip0_77_9">
      <rect width="500" height="500" fill="white"/>
    </clipPath>
  </defs>
</svg>
