<svg xmlns="http://www.w3.org/2000/svg" viewBox="0 0 80 80"><path d="M74.993 11.93a.997.997 0 0 0-.063-.315l-.007-.013a.991.991 0 0 0-.17-.268c-.01-.01-.013-.024-.024-.035-.01-.012-.025-.016-.037-.027-.022-.022-.04-.048-.064-.068-.052-.041-.11-.07-.166-.101-.016-.008-.03-.02-.045-.027-.097-.045-.2-.07-.305-.082-.03-.003-.06-.002-.09-.002a.984.984 0 0 0-.241.024c-.03.007-.06.011-.089.02-.016.006-.032.006-.047.012l-68 25.829a1 1 0 0 0-.039 1.854l21.774 9.31 7.005 20.303c.017.05.048.09.073.136.017.034.03.069.053.1.068.1.15.189.248.257l.005.005c.043.03.091.044.137.066.043.021.083.048.129.062a1 1 0 0 0 .3.048l.052-.001a.983.983 0 0 0 .37-.102c.03-.013.053-.031.08-.048a.987.987 0 0 0 .285-.25c.01-.014.028-.019.037-.033l9.189-13.374 20.7 8.191a1.003 1.003 0 0 0 1.358-.78l7.588-50.49c.006-.038.001-.075.002-.113.001-.03.003-.058.002-.087zm-6.96 3.389L28.035 46.146l-19.363-8.28L68.033 15.32zm-29.66 35.695c-.008.008-.01.02-.016.028-.035.043-.054.093-.082.141-.042.075-.085.147-.107.227-.004.013-.014.024-.018.037l-3.008 12.96-5.782-16.758 37.08-28.577-28.067 31.942zm-.873 12.08 2.336-10.063 3.599 1.424-5.935 8.639zm28.11-2.015-24.797-9.812 31.692-36.069L65.61 61.08z"/></svg>