<svg xmlns="http://www.w3.org/2000/svg" viewBox="0 0 24 24"><path fill="#eee" d="M18 6c0-3.309-2.691-6-6-6S6 2.691 6 6c0 3.14 2.425 5.72 5.5 5.975V23.5a.5.5 0 1 0 1 0V11.975C15.575 11.719 18 9.14 18 6z" class="colorff0000 svgShape"/><circle cx="12" cy="6" r="5" fill="#ffbb00" class="colore53935 svgShape"/><path d="M15.438 2.387c.025.203.062.403.062.613 0 2.757-2.243 5-5 5a4.972 4.972 0 0 1-3.438-1.387C7.368 9.078 9.453 11 12 11c2.757 0 5-2.243 5-5a4.975 4.975 0 0 0-1.562-3.613z" class="colorff0000 svgShape" opacity=".1"/><linearGradient id="a" x1="4.373" x2="16.967" y1="8.159" y2="14.032" gradientUnits="userSpaceOnUse"><stop class="stopColorffffff svgShape" offset="0" stop-color="#f00" stop-opacity=".2"/><stop class="stopColorffffff svgShape" offset="1" stop-color="#fff" stop-opacity="0"/></linearGradient><path fill="url(#a)" d="M18 6c0-3.309-2.691-6-6-6S6 2.691 6 6c0 3.14 2.425 5.72 5.5 5.975V23.5a.5.5 0 1 0 1 0V11.975C15.575 11.719 18 9.14 18 6z"/></svg>